<?xml version="1.0" standalone="yes"?>
<svg xmlns="http://www.w3.org/2000/svg" width="728" height="90">
<path style="fill:#000000; stroke:none;" d="M0 0L0 90L728 90L728 0L0 0z"/>
<path style="fill:#ffffff; stroke:none;" d="M68 19L68 65L23 65C27.2151 66.7687 32.4645 66 37 66L66 66L166 66L513 66L513 24L556 24L556 66L660 66C660 58.222 659.275 52.3851 657 45C656.015 47.3316 656.019 49.4566 656 52L654 52L654 34C659.22 37.256 658.124 40.5237 659 46C662.109 38.5912 660 27.0245 660 19L68 19z"/>
<path style="fill:#000000; stroke:none;" d="M266 20L266 64L305 64L305 20L266 20M87 33C84.4266 40.205 85 47.4132 85 55L232 55C232.011 50.92 232.49 47.0367 233 43C234.714 45.624 236.056 48.0133 237 51L233 49C233.497 52.2071 234.15 53.4436 237 55C240.015 48.727 237.731 44.8855 235 39L239 40C237.915 37.2824 236.34 35.3467 234 38C232.267 36.2433 231.659 35.358 231 33L87 33M652 35C648.887 37.3591 648.504 41.2605 648 45C646.919 41.3433 647 37.8008 647 34L630 34C624.966 34 617.692 32.7335 613.144 35.3179C608.464 37.9781 607.663 47.4653 611.728 51.0617C613.846 52.9362 617.349 52.9192 620 52.9853C626.325 53.1432 632.673 53.013 639 53C641.634 52.9946 645.126 53.4638 647.157 51.3966C650.546 47.9458 651.597 39.6222 652 35M602 35C602.118 40.7228 603.283 46.3339 604 52C608.476 48.841 608.345 40.1579 609 35C606.021 37.2678 606.077 40.4185 606 44C604.874 40.9972 604.261 38.1973 604 35L602 35M337 36L337 54L339 54L339 36L337 36M342.514 37.0278C338.63 39.8025 339.338 49.3799 342.564 52.3966C345.199 54.8606 355.531 55.2254 358.397 52.9722C360.091 51.6408 360.126 48.9446 360.42 46.9992C360.821 44.3413 361.855 40.0717 359.972 37.7423C357.564 34.7636 345.455 34.9263 342.514 37.0278M364.299 37.1759C360.321 39.1164 360.742 54.0476 366.701 52.2485C371.141 50.908 369.881 34.4522 364.299 37.1759M370 36C370.601 40.7551 369.638 50.0144 374.228 52.821C378.881 55.6659 387.734 54 393 54L439 54C443.803 54 454.6 55.9934 458.254 52.2577C461.915 48.514 456.918 42.0124 456 38C457.479 38.9857 457.203 39 459 39C455.526 33.642 443.794 36 438 36L375 36L375 51C372.432 46.1886 373.511 41.1113 372 36L370 36z"/>
<path style="fill:#ffffff; stroke:none;" d="M613 37C611.064 41.5953 611.391 45.1556 612 50C616.275 47.2283 615.655 40.8857 613 37M655 37L656 41C656.683 39.4939 656.826 38.6852 657 37L655 37M365 38C363.702 42.3929 362.733 48.2339 367 51C367.561 46.2508 368.094 41.9329 365 38M342 41L342 48C343.059 45.4657 343.059 43.5343 342 41M455 44C455.117 46.7301 455.499 49.3142 456 52C457.871 48.9344 457.159 46.7558 455 44z"/>
</svg>
